<?xml version="1.0" standalone="no"?>
<!DOCTYPE svg PUBLIC "-//W3C//DTD SVG 20010904//EN"
 "http://www.w3.org/TR/2001/REC-SVG-20010904/DTD/svg10.dtd">
<svg version="1.0" xmlns="http://www.w3.org/2000/svg"
 width="500.000000pt" height="500.000000pt" viewBox="0 0 500.000000 500.000000"
 preserveAspectRatio="xMidYMid meet">
<metadata>
Created by potrace 1.14, written by Peter Selinger 2001-2017
</metadata>
<g transform="translate(0.000000,500.000000) scale(0.100000,-0.100000)"
fill="#000000" stroke="none">
<path d="M1880 3345 c0 -8 10 -17 23 -20 86 -19 116 -25 144 -25 17 0 38 -6
45 -13 8 -8 49 -16 101 -20 126 -9 141 -23 34 -32 -48 -4 -96 -5 -107 -2 -11
3 -18 1 -14 -4 3 -5 -12 -9 -33 -9 -44 0 -69 -13 -59 -29 4 -6 11 -9 15 -7 4
3 25 7 46 10 22 2 101 12 175 21 114 15 148 15 218 5 45 -7 84 -16 87 -20 5
-8 -317 -23 -528 -24 -111 -1 -117 -2 -115 -21 3 -17 9 -19 53 -16 83 6 108 8
420 25 300 17 300 17 400 -5 311 -66 305 -65 305 -44 0 8 -3 15 -7 15 -8 0
-105 17 -148 25 -11 2 -46 8 -77 13 -91 14 -80 22 33 23 200 3 237 8 223 30
-4 7 -105 5 -179 -5 -5 0 -9 6 -10 14 0 17 3 17 -140 26 -101 7 -106 8 -61 15
43 7 109 14 221 25 17 1 42 3 58 3 17 1 27 6 27 16 0 17 -17 18 -115 5 -319
-44 -394 -50 -548 -40 -83 5 -168 14 -187 19 -19 5 -48 12 -65 14 -28 5 -161
31 -212 42 -16 4 -23 1 -23 -10z m882 -111 c59 -3 106 -10 103 -14 -11 -18
-178 -20 -268 -3 -122 22 -136 37 -27 29 47 -3 133 -8 192 -12z"/>
<path d="M2150 3121 c0 -10 51 -22 63 -14 4 2 5 9 2 14 -8 12 -65 12 -65 0z"/>
<path d="M2276 3100 c6 -6 77 -22 160 -37 174 -32 168 -36 -79 -52 -82 -5
-151 -12 -155 -15 -3 -4 -1 -11 5 -17 8 -8 30 -8 80 0 92 14 339 34 491 40 32
1 42 5 42 17 0 15 -9 16 -74 11 -61 -5 -109 0 -263 28 -207 38 -222 40 -207
25z"/>
<path d="M2384 2869 c37 -34 76 -82 90 -112 38 -74 35 -125 -14 -246 -22 -54
-40 -115 -40 -135 0 -71 46 -142 146 -223 32 -27 83 -70 113 -98 81 -73 42
-24 -66 83 -148 146 -168 211 -114 371 52 151 50 189 -10 277 -25 37 -147 144
-163 144 -4 0 22 -27 58 -61z"/>
</g>
</svg>
